<?xml version="1.0" encoding="UTF-8" standalone="no"?>
<!-- Created with Inkscape (http://www.inkscape.org/) -->

<svg
   xmlns:dc="http://purl.org/dc/elements/1.1/"
   xmlns:cc="http://creativecommons.org/ns#"
   xmlns:rdf="http://www.w3.org/1999/02/22-rdf-syntax-ns#"
   xmlns:svg="http://www.w3.org/2000/svg"
   xmlns="http://www.w3.org/2000/svg"
   xmlns:sodipodi="http://sodipodi.sourceforge.net/DTD/sodipodi-0.dtd"
   xmlns:inkscape="http://www.inkscape.org/namespaces/inkscape"
   width="1000"
   height="947.21698"
   viewBox="0 0 282.22222 267.32566"
   version="1.1"
   id="svg5198"
   inkscape:version="0.92.2 (5c3e80d, 2017-08-06)"
   sodipodi:docname="International_Alliance_of_Theatrical_Stage_Employees.svg">
  <defs
     id="defs5192" />
  <sodipodi:namedview
     id="base"
     pagecolor="#ffffff"
     bordercolor="#666666"
     borderopacity="1.0"
     inkscape:pageopacity="0.0"
     inkscape:pageshadow="2"
     inkscape:zoom="0.10757923"
     inkscape:cx="314.78404"
     inkscape:cy="-1328.091"
     inkscape:document-units="px"
     inkscape:current-layer="g4405"
     showgrid="false"
     inkscape:window-width="1024"
     inkscape:window-height="706"
     inkscape:window-x="-8"
     inkscape:window-y="-8"
     inkscape:window-maximized="1"
     units="px" />
  <metadata
     id="metadata5195">
    <rdf:RDF>
      <cc:Work
         rdf:about="">
        <dc:format>image/svg+xml</dc:format>
        <dc:type
           rdf:resource="http://purl.org/dc/dcmitype/StillImage" />
        <dc:title />
      </cc:Work>
    </rdf:RDF>
  </metadata>
  <g
     inkscape:label="Layer 1"
     inkscape:groupmode="layer"
     id="layer1"
     transform="translate(-10.369219,40.757862)">
    <g
       transform="matrix(0.31043811,0,0,0.31043811,35.880734,-7.3605568)"
       id="layer1-9"
       inkscape:label="Layer 1"
       style="opacity:1;stroke-width:0.85229009">
      <g
         transform="matrix(31.287888,0,0,31.287888,10636.072,-28376.815)"
         id="g5858"
         style="stroke-width:0.85229009">
        <g
           id="g4944"
           transform="matrix(1.25,0,0,-1.25,-329.45591,924.4578)"
           style="stroke-width:0.85229009">
          <g
             id="g4405"
             transform="translate(8.6657129,-0.36107138)"
             style="stroke-width:0.85229009">
            <g
               id="g4437"
               transform="matrix(0.40319793,0,0,0.40319793,-9.5918791,4.7071584)"
               style="stroke-width:3.14527488" />
            <g
               style="stroke-width:0.37799799"
               id="g4953"
               transform="matrix(3.3549601,0,0,3.3549601,31.173444,1.6134183)">
              <g
                 transform="matrix(0.27097477,0,0,0.27097477,-12.553718,2.9425165)"
                 id="g4882"
                 style="opacity:1;stroke-width:1.39495647">
                <path
                   inkscape:connector-curvature="0"
                   id="path4884"
                   style="fill:#000000;fill-opacity:1;fill-rule:nonzero;stroke:none;stroke-width:1.39495647"
                   d="m 0,0 c 0,0 -0.077,-0.843 -0.243,-1.802 0.088,-0.1 0.186,-0.197 0.289,-0.291 0.157,0.9 0.23,1.698 0.23,1.698 0,0 0.78,-0.145 1.684,-0.263 C 1.961,-0.66 1.961,-0.662 1.962,-0.665 1.92,-0.546 1.88,-0.419 1.842,-0.287 0.856,-0.158 0,0 0,0 M 9.233,-5.585 C 9.078,-5.564 8.931,-5.54 8.789,-5.511 9.11,-6.273 9.391,-6.9 9.391,-6.9 c 0,0 -0.674,-0.311 -1.54,-0.81 -0.007,0.007 -0.014,0.013 -0.021,0.019 0.095,-0.09 0.18,-0.188 0.253,-0.292 0.993,0.578 1.782,0.943 1.782,0.943 0,0 -0.293,0.652 -0.632,1.455 m -5.414,-4.919 c 0,0 -0.494,0.385 -1.549,1.224 -0.035,-0.12 -0.073,-0.234 -0.112,-0.335 1.142,-0.91 1.676,-1.326 1.676,-1.326 0,0 0.536,0.4 1.378,1.012 -0.029,0.128 -0.059,0.255 -0.089,0.382 -0.796,-0.578 -1.304,-0.957 -1.304,-0.957 m -5.573,4.06 c 0,0 0.378,0.589 0.768,1.325 -0.128,0.002 -0.255,0.005 -0.38,0.008 -0.422,-0.798 -0.831,-1.436 -0.831,-1.436 0,0 0.703,-0.293 2.037,-1.257 0.127,0.083 0.278,0.19 0.442,0.305 -0.055,-0.032 -0.109,-0.065 -0.163,-0.1 -1.226,0.885 -1.873,1.155 -1.873,1.155 M 8.03,-1.725 C 7.895,-0.802 7.847,0 7.847,0 c 0,0 -1.01,-0.171 -2.11,-0.302 -0.069,-0.12 -0.142,-0.248 -0.218,-0.379 1.038,0.122 2.008,0.286 2.008,0.286 0,0 0.042,-0.702 0.159,-1.525 -0.003,-0.003 -0.005,-0.005 -0.007,-0.007 0.097,0.088 0.211,0.162 0.351,0.202" />
              </g>
              <g
                 transform="matrix(0.27097477,0,0,0.27097477,-11.520925,4.4370248)"
                 id="g4886"
                 style="opacity:1;stroke-width:1.39495647">
                <path
                   inkscape:connector-curvature="0"
                   id="path4888"
                   style="fill:#000000;fill-opacity:1;fill-rule:nonzero;stroke:none;stroke-width:1.39495647"
                   d="m 0,0 c -1.256,0 -5.336,0.673 -5.336,0.673 l 3.885,-8.489 c 0.377,0.177 0.592,0.181 0.987,0.181 l -3.033,6.873 c 0,0 1.748,-0.314 3.497,-0.314 1.749,0 3.632,0.314 3.632,0.314 l -3.079,-6.89 c 0.293,-0.06 0.586,-0.261 0.879,-0.256 L 5.426,0.673 C 5.426,0.673 1.255,0 0,0" />
              </g>
              <g
                 transform="matrix(0.27097477,0,0,0.27097477,-12.016891,0.6891727)"
                 id="g4890"
                 style="opacity:1;stroke-width:1.39495647">
                <path
                   inkscape:connector-curvature="0"
                   id="path4892"
                   style="fill:#000000;fill-opacity:1;fill-rule:nonzero;stroke:none;stroke-width:1.39495647"
                   d="m 0,0 -2.015,-7.194 c 0,0 -1.151,1.354 -2.501,2.465 -1.35,1.112 -3.003,2.066 -3.003,2.066 l 6.103,3.038 c -0.072,0.284 -0.337,0.479 -0.53,0.762 l -7.87,-3.768 c 0,0 3.647,-2.131 4.616,-2.929 0.969,-0.798 3.692,-3.91 3.692,-3.91 l 2.445,9.209 C 0.625,-0.276 0.313,-0.051 0,0" />
              </g>
              <g
                 transform="matrix(0.27097477,0,0,0.27097477,-10.519809,0.93131574)"
                 id="g4894"
                 style="opacity:1;stroke-width:1.39495647">
                <path
                   inkscape:connector-curvature="0"
                   id="path4896"
                   style="fill:#000000;fill-opacity:1;fill-rule:nonzero;stroke:none;stroke-width:1.39495647"
                   d="m 0,0 c -0.218,-0.289 -0.547,-0.467 -0.885,-0.637 l 6.211,-3.411 c 0,0 -1.58,-0.813 -2.969,-1.876 C 0.968,-6.986 -0.337,-8.38 -0.337,-8.38 l -1.767,7.457 C -2.442,-1.08 -2.653,-1.095 -2.991,-1.096 l 2.101,-9.513 c 0,0 2.904,3.068 3.901,3.83 0.997,0.763 4.647,2.708 4.647,2.708 z" />
              </g>
              <g
                 transform="matrix(0.27097477,0,0,0.27097477,-14.463602,1.5436386)"
                 id="g4898"
                 style="opacity:1;stroke-width:1.39495647">
                <path
                   inkscape:connector-curvature="0"
                   id="path4900"
                   style="fill:#000000;fill-opacity:1;fill-rule:nonzero;stroke:none;stroke-width:1.39495647"
                   d="M 0,0 C 0,0 0.903,1.53 1.512,3.17 2.12,4.809 2.481,6.684 2.481,6.684 L 7.041,2.211 C 6.943,2.669 7.339,2.673 7.407,3.159 L 1.76,8.865 c 0,0 -0.82,-4.144 -1.257,-5.321 -0.437,-1.177 -2.488,-4.768 -2.488,-4.768 l 8.941,0.661 C 7.18,-0.23 7.279,0.103 7.303,0.44 Z" />
              </g>
              <g
                 transform="matrix(0.27097477,0,0,0.27097477,-8.7178536,2.421081)"
                 id="g4902"
                 style="opacity:1;stroke-width:1.39495647">
                <path
                   inkscape:connector-curvature="0"
                   id="path4904"
                   style="fill:#000000;fill-opacity:1;fill-rule:nonzero;stroke:none;stroke-width:1.39495647"
                   d="m 0,0 c -0.403,1.189 -1.078,5.269 -1.078,5.269 l -5.984,-5.646 c 0.218,-0.308 0.512,-0.516 0.526,-0.863 l 4.69,4.307 c 0,0 0.265,-1.757 0.827,-3.413 0.562,-1.656 1.464,-3.338 1.464,-3.338 l -7.075,0.661 c 0.359,-0.225 -0.144,-0.696 0.164,-0.935 L 2.38,-4.922 c 0,0 -1.977,3.733 -2.38,4.922" />
              </g>
              <g
                 transform="matrix(0.27097477,0,0,0.27097477,-11.154703,0.70190862)"
                 id="g4906"
                 style="opacity:1;stroke-width:1.39495647">
                <path
                   inkscape:connector-curvature="0"
                   id="path4908"
                   style="fill:#000000;fill-opacity:1;fill-rule:nonzero;stroke:none;stroke-width:1.39495647"
                   d="M 0,0 C 1.183,0.04 2.089,0.678 2.346,1.484 2.667,2.487 1.965,3.55 1.945,4.111 1.931,4.517 2.266,5.254 2.266,5.254 L 1.665,5.956 c 0,0 -0.903,-0.3 -1.705,-0.24 -0.802,0.06 -1.349,0.521 -1.349,0.521 0,0 -0.541,-0.461 -1.344,-0.521 -0.802,-0.06 -1.704,0.24 -1.704,0.24 L -5.039,5.254 c 0,0 0.335,-0.737 0.321,-1.143 C -4.738,3.55 -5.44,2.487 -5.119,1.484 -4.861,0.678 -3.956,0.04 -2.773,0 c 1.184,-0.04 1.384,-0.441 1.384,-0.441 0,0 0.206,0.401 1.389,0.441 m -1.396,-0.834 c 0,0 -0.225,0.449 -1.547,0.493 -1.323,0.045 -2.335,0.758 -2.623,1.66 -0.359,1.121 0.426,2.309 0.448,2.936 0.016,0.454 -0.359,1.279 -0.359,1.279 l 0.673,0.784 c 0,0 1.009,-0.336 1.905,-0.269 0.897,0.067 1.503,0.583 1.503,0.583 0,0 0.611,-0.516 1.507,-0.583 0.897,-0.067 1.906,0.269 1.906,0.269 L 2.69,5.534 c 0,0 -0.375,-0.825 -0.359,-1.279 C 2.353,3.628 3.138,2.44 2.779,1.319 2.491,0.417 1.479,-0.296 0.156,-0.341 -1.167,-0.385 -1.396,-0.834 -1.396,-0.834" />
              </g>
              <g
                 transform="matrix(0.27097477,0,0,0.27097477,-11.224478,0.84788383)"
                 id="g4910"
                 style="opacity:1;stroke-width:1.39495647">
                <path
                   inkscape:connector-curvature="0"
                   id="path4912"
                   style="fill:#000000;fill-opacity:1;fill-rule:nonzero;stroke:none;stroke-width:1.39495647"
                   d="M 0,0 C 0.965,0.033 1.703,0.553 1.914,1.21 2.175,2.028 1.603,2.895 1.587,3.353 1.575,3.684 1.848,4.379 1.848,4.379 l -0.37,0.426 c 0,0 -0.734,-0.202 -1.511,-0.143 -0.654,0.049 -1.1,0.425 -1.1,0.425 0,0 -0.441,-0.376 -1.096,-0.425 -0.654,-0.049 -1.483,0.143 -1.483,0.143 L -4.11,4.392 c 0,0 0.274,-0.708 0.262,-1.039 C -3.864,2.895 -4.437,2.028 -4.175,1.21 -3.965,0.553 -3.226,0.033 -2.261,0 c 0.965,-0.033 1.128,-0.36 1.128,-0.36 0,0 0.168,0.327 1.133,0.36 m -1.132,-0.716 c 0,0 -0.184,0.37 -1.274,0.406 -1.089,0.038 -1.923,0.625 -2.16,1.367 -0.295,0.923 0.351,1.901 0.369,2.419 0.014,0.373 -0.295,1.052 -0.295,1.052 l 0.554,0.646 c 0,0 0.831,-0.277 1.569,-0.221 0.739,0.055 1.237,0.48 1.237,0.48 0,0 0.503,-0.425 1.242,-0.48 0.738,-0.056 1.569,0.221 1.569,0.221 L 2.233,4.528 c 0,0 -0.309,-0.679 -0.295,-1.052 C 1.956,2.958 2.602,1.98 2.307,1.057 2.069,0.315 1.236,-0.272 0.147,-0.31 -0.943,-0.346 -1.132,-0.716 -1.132,-0.716" />
              </g>
              <g
                 transform="matrix(0.27097477,0,0,0.27097477,-12.684898,0.33750179)"
                 id="g4914"
                 style="opacity:1;stroke-width:1.39495647">
                <path
                   inkscape:connector-curvature="0"
                   id="path4916"
                   style="fill:#000000;fill-opacity:1;fill-rule:nonzero;stroke:none;stroke-width:1.39495647"
                   d="m 0,0 -2.082,-2.379 0.59,-0.517 2.082,2.379 z" />
              </g>
              <g
                 transform="matrix(0.27097477,0,0,0.27097477,-11.612055,3.7800736)"
                 id="g4918"
                 style="opacity:1;stroke-width:1.39495647">
                <path
                   inkscape:connector-curvature="0"
                   id="path4920"
                   style="fill:#000000;fill-opacity:1;fill-rule:nonzero;stroke:none;stroke-width:1.39495647"
                   d="m 0,0 -0.874,0 0,0.74 2.511,0 0,-0.762 -0.897,0 0,-2.399 -0.74,0 z" />
              </g>
              <g
                 transform="matrix(0.27097477,0,0,0.27097477,-9.3044336,2.0253212)"
                 id="g4922"
                 style="opacity:1;stroke-width:1.39495647">
                <path
                   inkscape:connector-curvature="0"
                   id="path4924"
                   style="fill:#000000;fill-opacity:1;fill-rule:nonzero;stroke:none;stroke-width:1.39495647"
                   d="m 0,0 0.566,-0.259 c 0,0 0.389,0.55 0.151,1.233 C 0.48,1.658 -0.135,1.817 -0.504,1.688 -0.874,1.56 -1.124,1.328 -1.09,0.573 -1.072,0.18 -1.106,-0.106 -1.228,-0.16 c -0.111,-0.05 -0.33,0.098 -0.389,0.343 -0.091,0.382 0.103,0.719 0.103,0.719 l -0.561,0.302 c 0,0 -0.475,-0.6 -0.25,-1.246 0.225,-0.647 0.829,-0.954 1.365,-0.768 0.535,0.186 0.548,0.625 0.517,1.132 -0.032,0.507 -0.021,0.655 0.145,0.713 C -0.132,1.093 0.025,0.94 0.096,0.737 0.166,0.534 0,0 0,0" />
              </g>
              <g
                 transform="matrix(0.27097477,0,0,0.27097477,-10.277151,-0.72046621)"
                 id="g4926"
                 style="opacity:1;stroke-width:1.39495647">
                <path
                   inkscape:connector-curvature="0"
                   id="path4928"
                   style="fill:#000000;fill-opacity:1;fill-rule:nonzero;stroke:none;stroke-width:1.39495647"
                   d="M 0,0 1.885,1.447 -0.04,3.955 -1.925,2.508 -1.433,1.867 -0.259,2.768 -0.041,2.484 -0.824,1.883 -0.346,1.261 0.446,1.868 0.705,1.53 -0.478,0.622 Z" />
              </g>
              <g
                 transform="matrix(0.27097477,0,0,0.27097477,-13.573992,2.2536987)"
                 id="g4930"
                 style="opacity:1;stroke-width:1.39495647">
                <path
                   inkscape:connector-curvature="0"
                   id="path4932"
                   style="fill:#000000;fill-opacity:1;fill-rule:nonzero;stroke:none;stroke-width:1.39495647"
                   d="m 0,0 0.746,-0.606 0.215,0.529 z M 1.324,-1.979 C 1.254,-1.975 -1.24,0.105 -1.24,0.105 L -0.969,0.77 2.33,0.492 2.06,-0.173 1.452,-0.119 1.127,-0.919 1.603,-1.294 Z" />
              </g>
              <g
                 transform="matrix(0.27097477,0,0,0.27097477,-11.367393,1.6070466)"
                 id="g4934"
                 style="opacity:1;stroke-width:1.39495647">
                <path
                   inkscape:connector-curvature="0"
                   id="path4936"
                   style="fill:#000000;fill-opacity:1;fill-rule:nonzero;stroke:none;stroke-width:1.39495647"
                   d="m 0,0 -0.274,-0.848 0.519,0.002 z m -1.268,-1.819 c -0.019,0.063 0.944,2.926 0.944,2.926 l 0.654,0 0.866,-2.947 -0.655,0.001 -0.168,0.554 -0.79,0.003 -0.165,-0.538 z" />
              </g>
              <path
                 inkscape:connector-curvature="0"
                 id="path4938"
                 style="opacity:1;fill:#000000;fill-opacity:1;fill-rule:nonzero;stroke:none;stroke-width:1.39495647"
                 d="m -324.94554,922.8218 -0.9225,0 0,3.66375 0.9225,0 z"
                 transform="matrix(0.21677982,0,0,-0.21677982,58.691113,201.95819)" />
              <path
                 inkscape:connector-curvature="0"
                 id="path4946"
                 style="opacity:1;fill:#000000;fill-opacity:1;fill-rule:nonzero;stroke:none;stroke-width:1.39495647"
                 d="m 0.09504923,0.00206894 c -0.35747345,-0.67413169 -0.70509914,-1.21382954 -0.70509914,-1.21382954 0,0 0.31709765,-0.1324713 0.92470406,-0.5181099 -0.16938137,0.5956301 -0.0196956,1.20696061 0.15264017,1.73684578 C 0.3441974,0.00305018 0.2201157,0.00206891 0.09504923,0.00206891 M 3.1951219,3.57585 C 3.0365731,3.6553329 2.9075676,3.8241111 2.7972728,4.0488216 1.9651377,4.1567612 1.2432973,4.2902138 1.2432973,4.2902138 c 0,0 -0.048254,-0.522035 -0.1496859,-1.1785039 C 1.1999672,3.0773657 2.1286103,2.7888725 2.9597608,2.8506924 3.2482999,2.87228 3.5053263,2.9409694 3.7219768,3.0233957 3.5516107,3.155867 3.3763207,3.3374017 3.1951219,3.57585 m 5.1168928,-5.8513061 c 0.714947,0.401339 1.2506647,0.6486188 1.2506647,0.6486188 0,0 -0.3298996,0.73300779 -0.6686624,1.54942346 C 8.7108488,-0.04306943 8.5444217,0.00697528 8.394736,0.0697765 8.5818432,-0.49249055 8.7561485,-1.1528845 8.5503305,-1.7907093 8.4961673,-1.9604687 8.4154161,-2.1223781 8.3120147,-2.2754561 m -3.8731214,-1.627925 c 0,0 -0.2048333,0.4072267 -1.3777007,0.4768968 -0.011817,-0.1148085 -0.025603,-0.2266732 -0.040375,-0.3316689 0.9916683,-0.7859964 1.4554976,-1.1471033 1.4554976,-1.1471033 0,0 0.4795856,0.3562006 1.2240756,0.8949171 -0.042345,0.1942913 -0.075828,0.3846574 -0.093554,0.5661922 C 4.6220615,-3.5471804 4.4388933,-3.9033811 4.4388933,-3.9033811 M 5.9022695,4.0154585 C 5.6974362,3.6190259 5.448288,3.2589002 5.1617185,3.0224144 5.3783691,2.9409691 5.6353954,2.8722803 5.9239345,2.8506924 6.8062932,2.7849474 7.7999316,3.1146537 7.7999316,3.1146537 L 8.0116583,2.8683552 C 7.9013634,3.6317824 7.8609876,4.2902138 7.8609876,4.2902138 c 0,0 -0.9650798,-0.1638719 -1.9587181,-0.2747553"
                 transform="matrix(0.27097477,0,0,0.27097477,-12.72828,1.5543952)" />
              <g
                 style="stroke-width:0.94115984"
                 transform="matrix(0.40162995,0,0,0.40162995,-5.438048,-0.16002296)"
                 id="g4556" />
            </g>
          </g>
        </g>
      </g>
    </g>
  </g>
</svg>
